General
Unique ID                                : 202281317326271780954677684538952751717 (0x982DF6F1865ADCAE9B6F37A79F359A65)
Complete name                            : Fast.&.Furious.6.2013.Extended.Cut.REPACK.UHD.BluRay.2160p.DTS-HD.MA.5.1.HEVC.REMUX-FraMeSToR.mkv
Format                                   : Matroska
Format version                           : Version 4
File size                                : 43.6 GiB
Duration                                 : 2 h 11 min
Overall bit rate mode                    : Variable
Overall bit rate                         : 47.6 Mb/s
Movie name                               : Fast & Furious 6 (2013) 4K
Encoded date                             : UTC 2017-12-15 14:08:39
Writing application                      : mkvmerge v18.0.0 ('Apricity') 64-bit
Writing library                          : libebml v1.3.5 + libmatroska v1.4.8

Video
ID                                       : 1
Format                                   : HEVC
Format/Info                              : High Efficiency Video Coding
Format profile                           : Main 10@L5.1@High
HDR format                               : SMPTE ST 2086, HDR10 compatible
Codec ID                                 : V_MPEGH/ISO/HEVC
Duration                                 : 2 h 11 min
Bit rate                                 : 43.0 Mb/s
Width                                    : 3 840 pixels
Height                                   : 2 160 pixels
Display aspect ratio                     : 16:9
Frame rate mode                          : Constant
Frame rate                               : 23.976 (24000/1001) FPS
Color space                              : YUV
Chroma subsampling                       : 4:2:0 (Type 2)
Bit depth                                : 10 bits
Bits/(Pixel*Frame)                       : 0.216
Stream size                              : 39.3 GiB (90%)
Writing library                          : ATEME Titan File 3.7.8 (4.7.8.0)
Default                                  : Yes
Forced                                   : No
Color range                              : Limited
Color primaries                          : BT.2020
Transfer characteristics                 : PQ
Matrix coefficients                      : BT.2020 non-constant
Mastering display color primaries        : Display P3
Mastering display luminance              : min: 0.0050 cd/m2, max: 1000 cd/m2
Maximum Content Light Level              : 1000 cd/m2
Maximum Frame-Average Light Level        : 252 cd/m2

Audio #1
ID                                       : 2
Format                                   : DTS XLL
Format/Info                              : Digital Theater Systems
Commercial name                          : DTS-HD Master Audio
Codec ID                                 : A_DTS
Duration                                 : 2 h 11 min
Bit rate mode                            : Variable
Bit rate                                 : 4 210 kb/s
Channel(s)                               : 6 channels
Channel layout                           : C L R Ls Rs LFE
Sampling rate                            : 48.0 kHz
Frame rate                               : 93.750 FPS (512 SPF)
Bit depth                                : 24 bits
Compression mode                         : Lossless
Stream size                              : 3.85 GiB (9%)
Title                                    : DTS-HD MA 5.1
Language                                 : English
Default                                  : Yes
Forced                                   : No

Audio #2
ID                                       : 3
Format                                   : AC-3
Format/Info                              : Audio Coding 3
Commercial name                          : Dolby Digital
Codec ID                                 : A_AC3
Duration                                 : 2 h 11 min
Bit rate mode                            : Constant
Bit rate                                 : 192 kb/s
Channel(s)                               : 2 channels
Channel layout                           : L R
Sampling rate                            : 48.0 kHz
Frame rate                               : 31.250 FPS (1536 SPF)
Bit depth                                : 16 bits
Compression mode                         : Lossy
Stream size                              : 180 MiB (0%)
Title                                    : Commentary by director Justin Lin
Language                                 : English
Service kind                             : Complete Main
Default                                  : No
Forced                                   : No

Text #1
ID                                       : 4
Format                                   : PGS
Codec ID                                 : S_HDMV/PGS
Codec ID/Info                            : Picture based subtitle format used on BDs/HD-DVDs
Duration                                 : 2 h 3 min
Bit rate                                 : 31.6 kb/s
Count of elements                        : 2940
Stream size                              : 28.0 MiB (0%)
Title                                    : English (SDH)
Language                                 : English
Default                                  : No
Forced                                   : No

Text #2
ID                                       : 5
Format                                   : PGS
Codec ID                                 : S_HDMV/PGS
Codec ID/Info                            : Picture based subtitle format used on BDs/HD-DVDs
Duration                                 : 2 h 9 min
Bit rate                                 : 26.8 kb/s
Count of elements                        : 2528
Stream size                              : 24.8 MiB (0%)
Title                                    : Spanish (Castilian)
Language                                 : Spanish
Default                                  : No
Forced                                   : No

Text #3
ID                                       : 6
Format                                   : PGS
Codec ID                                 : S_HDMV/PGS
Codec ID/Info                            : Picture based subtitle format used on BDs/HD-DVDs
Duration                                 : 2 h 9 min
Bit rate                                 : 22.9 kb/s
Count of elements                        : 2524
Stream size                              : 21.2 MiB (0%)
Title                                    : Portuguese (Brazilian)
Language                                 : Portuguese
Default                                  : No
Forced                                   : No

Text #4
ID                                       : 7
Format                                   : PGS
Codec ID                                 : S_HDMV/PGS
Codec ID/Info                            : Picture based subtitle format used on BDs/HD-DVDs
Duration                                 : 2 h 9 min
Bit rate                                 : 25.9 kb/s
Count of elements                        : 2338
Stream size                              : 24.0 MiB (0%)
Title                                    : Portuguese
Language                                 : Portuguese
Default                                  : No
Forced                                   : No

Text #5
ID                                       : 8
Format                                   : PGS
Codec ID                                 : S_HDMV/PGS
Codec ID/Info                            : Picture based subtitle format used on BDs/HD-DVDs
Duration                                 : 2 h 6 min
Bit rate                                 : 63.4 kb/s
Count of elements                        : 3734
Stream size                              : 57.3 MiB (0%)
Title                                    : English (Commentary)
Language                                 : English
Default                                  : No
Forced                                   : No

Text #6
ID                                       : 9
Format                                   : PGS
Codec ID                                 : S_HDMV/PGS
Codec ID/Info                            : Picture based subtitle format used on BDs/HD-DVDs
Duration                                 : 2 h 10 min
Bit rate                                 : 53.3 kb/s
Count of elements                        : 3742
Stream size                              : 49.9 MiB (0%)
Title                                    : Spanish (Commentary)
Language                                 : Spanish
Default                                  : No
Forced                                   : No

Menu
00:00:00.000                             : en:Chapter 1
00:04:21.011                             : en:Chapter 2
00:10:19.118                             : en:Chapter 3
00:15:35.268                             : en:Chapter 4
00:19:18.574                             : en:Chapter 5
00:24:32.721                             : en:Chapter 6
00:30:23.405                             : en:Chapter 7
00:36:28.478                             : en:Chapter 8
00:44:01.305                             : en:Chapter 9
00:50:50.255                             : en:Chapter 10
00:56:54.327                             : en:Chapter 11
01:04:54.057                             : en:Chapter 12
01:10:14.293                             : en:Chapter 13
01:19:13.457                             : en:Chapter 14
01:25:41.178                             : en:Chapter 15
01:34:53.771                             : en:Chapter 16
01:41:48.561                             : en:Chapter 17
01:48:31.838                             : en:Chapter 18
01:57:48.812                             : en:Chapter 19
02:03:04.418                             : en:Chapter 20
